<?xml version="1.0" encoding="UTF-8"?>
<svg id="Layer_3" data-name="Layer 3" xmlns="http://www.w3.org/2000/svg" viewBox="0 0 1024 1024">
  <rect y="0" width="1024" height="1024"/>
  <g>
    <path d="M528.78,402.12c-7.9-7.9-20.75-7.84-28.71.12l-204.87,204.87c-7.96,7.96-8.01,20.82-.12,28.71l204.27,204.27c7.9,7.89,20.75,7.84,28.71-.12l205.97-205.97c7.96-7.96,8.01-20.82.12-28.72l-205.38-203.17ZM674.43,605.21c7.93,7.93,7.93,20.8,0,28.73l-147.79,147.79c-7.93,7.93-20.79,7.93-28.72,0l-145.58-145.57c-7.93-7.93-7.93-20.8,0-28.73l147.79-147.78c7.94-7.93,20.79-7.93,28.73,0l145.58,145.57Z" fill="#fff"/>
    <path d="M242.72,607.29l256.98-256.98c8.16-8.16,20.31-9.63,33.07,3.5l256.97,256.97s12.21,12.21,27.5-.86c7.94-7.93,7.94-20.79,0-28.73l-289.86-288.02c-12.89-10.32-23.73-2.71-35.17,7.18l-281.58,279.73c-7.93,7.94-7.93,20.8,0,28.73,0,0,14.67,14.8,32.09-1.52Z" fill="#fff"/>
    <path d="M175.04,564.47L499.43,240.08c8.16-8.16,20.31-9.63,33.07,3.51l321.06,321.06s12.21,12.21,27.5-.86c7.93-7.93,7.93-20.79,0-28.73l-353.95-352.11c-12.89-10.31-23.73-2.71-35.18,7.18l-348.97,347.13c-7.93,7.93-7.93,20.79,0,28.73,0,0,14.67,14.8,32.09-1.52Z" fill="#fff"/>
    <path d="M495.7,512.11l-90.06,90.06c-10.22,10.22-10.22,26.79,0,37.01l89.25,89.25c10.22,10.22,26.79,10.22,37.01,0l90.06-90.06c10.22-10.22,10.22-26.79,0-37.01l-89.25-89.24c-10.22-10.22-26.79-10.22-37,0ZM536.95,611.39c-2.04,2.04-4.28,3.77-6.65,5.19l8.49,64.6-50.96-.42,8.01-63.69c-2.69-1.51-5.21-3.4-7.5-5.69-13.43-13.43-13.43-35.19,0-48.62,13.42-13.42,35.19-13.42,48.61,0,13.43,13.43,13.43,35.19,0,48.62Z" fill="#fff"/>
  </g>
</svg>